<mxfile host="app.diagrams.net" modified="2023-04-19T11:58:18.807Z" agent="Mozilla/5.0 (Macintosh; Intel Mac OS X 10_15_7) AppleWebKit/537.36 (KHTML, like Gecko) Chrome/112.0.0.0 Safari/537.36" version="21.1.7" etag="poTbTs6fs5Bg_8vVKV2k" type="github">
  <diagram name="Page-1" id="SS4SC0F7kyrHdRyn0NQY">
    <mxGraphModel>
      <root>
        <mxCell id="0" />
        <mxCell id="1" parent="0" />
      </root>
    </mxGraphModel>
  </diagram>
</mxfile>
